<?xml version="1.0" encoding="utf-8"?>

<!DOCTYPE svg PUBLIC "-//W3C//DTD SVG 1.1//EN" "http://www.w3.org/Graphics/SVG/1.1/DTD/svg11.dtd">
<!-- Uploaded to: SVG Repo, www.svgrepo.com, Generator: SVG Repo Mixer Tools -->
<svg version="1.1" id="_x32_" xmlns="http://www.w3.org/2000/svg" xmlns:xlink="http://www.w3.org/1999/xlink" 
	 width="800px" height="800px" viewBox="0 0 512 512"  xml:space="preserve">
<style type="text/css">
<![CDATA[
	.st0{fill:#000000;}
]]>
</style>
<g>
	<path class="st0" d="M305.844,132.859c-3.219-16.797-17.906-28.922-34.984-28.922h-87.297c-17.625,0-32.594,12.891-35.219,30.328
		l-10.516,70.172h181.703L305.844,132.859z"/>
	<path class="st0" d="M450.313,246.063c-4.625-8.406-10.813-15.313-18.141-20.188c-3.672-2.438-7.609-4.344-11.75-5.656
		c-4.141-1.281-8.484-1.984-12.891-1.984h-336c-4.828,0-9.547,0.828-14.016,2.359c-6.719,2.313-12.844,6.219-18.078,11.313
		C34.188,237,29.813,243.313,26.5,250.5l-0.188,0.422L0,327.688l17.406,5.969l9.078-26.531h16.578
		c-2.203,2.063-4.188,4.375-5.906,6.906c-4.344,6.438-6.906,14.25-6.906,22.594c0,5.516,1.125,10.656,3.188,15.141
		c1.516,3.359,3.5,6.391,5.766,9.078c3.391,4.063,7.328,7.438,11.453,10.563c4.141,3.156,8.484,6.063,12.781,9.063l0.125,0.094
		l25.781,16.609c11.031,7.109,23.875,10.891,36.984,10.891h227.063c13.109,0,25.953-3.781,36.969-10.875l25.797-16.625l0.125-0.094
		c3.813-2.656,7.688-5.266,11.391-8c2.781-2.063,5.484-4.219,8.031-6.594c1.922-1.75,3.734-3.656,5.375-5.719
		c2.484-3.094,4.609-6.594,6.109-10.547c1.484-3.953,2.281-8.328,2.281-12.984c0-5.563-1.125-10.906-3.188-15.719
		c-2.219-5.281-5.531-9.938-9.625-13.781h25.516l16.453,30.719l16.219-8.688l-44.5-83.047L450.313,246.063z M431.469,345.063
		c-0.828,1.844-1.938,3.594-3.438,5.359c-2.203,2.656-5.203,5.297-8.813,8.047c-3.563,2.719-7.719,5.516-12.109,8.578L381.563,383.5
		c-8.406,5.438-18.188,8.297-28.172,8.297H126.328c-9.984,0-19.766-2.859-28.172-8.297l-25.531-16.453
		c-3.906-2.734-7.625-5.234-10.875-7.641c-2.5-1.844-4.75-3.656-6.656-5.438c-1.438-1.344-2.703-2.656-3.781-4
		c-1.594-1.984-2.75-3.938-3.531-6.063c-0.813-2.125-1.25-4.438-1.266-7.281c0-3.344,0.672-6.5,1.891-9.391
		c1.844-4.328,4.906-8.047,8.781-10.641c3.875-2.609,8.469-4.125,13.484-4.125h338.391c3.344,0,6.5,0.656,9.375,1.906
		c4.313,1.813,8.031,4.906,10.641,8.75c2.609,3.875,4.125,8.469,4.125,13.5C433.188,340,432.563,342.609,431.469,345.063z"/>
	<polygon class="st0" points="321.641,168.5 442.031,158.094 442.656,165.297 512,159.313 508.563,119.531 439.219,125.531 
		439.844,132.719 319.453,143.125 	"/>
	<polygon class="st0" points="132.156,171.531 71.344,171.906 71.344,203.031 126.5,203.031 	"/>
	<path class="st0" d="M134.766,324.375c-15.766,0-28.563,12.781-28.563,28.563S119,381.5,134.766,381.5s28.563-12.781,28.563-28.563
		S150.531,324.375,134.766,324.375z"/>
	<path class="st0" d="M204.594,324.375c-15.781,0-28.563,12.781-28.563,28.563s12.781,28.563,28.563,28.563
		c15.766,0,28.563-12.781,28.563-28.563S220.359,324.375,204.594,324.375z"/>
	<path class="st0" d="M274.406,324.375c-15.766,0-28.563,12.781-28.563,28.563s12.797,28.563,28.563,28.563
		c15.781,0,28.563-12.781,28.563-28.563S290.188,324.375,274.406,324.375z"/>
	<path class="st0" d="M344.234,324.375c-15.766,0-28.563,12.781-28.563,28.563s12.797,28.563,28.563,28.563
		s28.563-12.781,28.563-28.563S360,324.375,344.234,324.375z"/>
	<path class="st0" d="M70.672,321.313c-8.453,0-15.328,6.844-15.328,15.313c0,8.453,6.875,15.313,15.328,15.313
		s15.313-6.859,15.313-15.313C85.984,328.156,79.125,321.313,70.672,321.313z"/>
	<path class="st0" d="M411.031,321.313c-8.453,0-15.313,6.844-15.313,15.313c0,8.453,6.859,15.313,15.313,15.313
		c8.469,0,15.313-6.859,15.313-15.313C426.344,328.156,419.5,321.313,411.031,321.313z"/>
</g>
</svg>