<?xml version="1.0" encoding="utf-8"?><!-- Uploaded to: SVG Repo, www.svgrepo.com, Generator: SVG Repo Mixer Tools -->
<svg width="800px" height="800px" viewBox="0 0 24 24" fill="none" xmlns="http://www.w3.org/2000/svg">
<path fill-rule="evenodd" clip-rule="evenodd" d="M6.3375 19C5.815 19 5.33219 18.7141 5.07094 18.25C4.80969 17.7859 4.80969 17.2141 5.07094 16.75C5.33219 16.2859 5.815 16 6.3375 16H17.0625C17.8702 16 18.525 16.6716 18.525 17.5C18.525 18.3284 17.8702 19 17.0625 19H6.3375Z" stroke="#000000" stroke-width="1.5" stroke-linecap="round" stroke-linejoin="round"/>
<path fill-rule="evenodd" clip-rule="evenodd" d="M4.875 8C6.10837 10.228 8.83837 13.569 11.7 8C14.5616 13.569 17.2916 10.228 18.525 8L17.16 16H6.24L4.875 8Z" stroke="#000000" stroke-width="1.5" stroke-linecap="round" stroke-linejoin="round"/>
<path fill-rule="evenodd" clip-rule="evenodd" d="M11.7 8C10.8923 8 10.2375 7.32843 10.2375 6.5C10.2375 5.67157 10.8923 5 11.7 5C12.5078 5 13.1625 5.67157 13.1625 6.5C13.1625 6.89782 13.0085 7.27936 12.7342 7.56066C12.4599 7.84196 12.0879 8 11.7 8Z" stroke="#000000" stroke-width="1.5" stroke-linecap="round" stroke-linejoin="round"/>
<path fill-rule="evenodd" clip-rule="evenodd" d="M18.525 8C17.9866 8 17.55 7.55228 17.55 7C17.55 6.44772 17.9866 6 18.525 6C19.0635 6 19.5 6.44772 19.5 7C19.5 7.26522 19.3973 7.51957 19.2145 7.70711C19.0316 7.89464 18.7836 8 18.525 8Z" stroke="#000000" stroke-width="1.5" stroke-linecap="round" stroke-linejoin="round"/>
<path fill-rule="evenodd" clip-rule="evenodd" d="M4.87502 8C4.33655 8 3.90002 7.55228 3.90002 7C3.90002 6.44772 4.33655 6 4.87502 6C5.4135 6 5.85002 6.44772 5.85002 7C5.85002 7.26522 5.7473 7.51957 5.56445 7.70711C5.38161 7.89464 5.13361 8 4.87502 8Z" stroke="#000000" stroke-width="1.5" stroke-linecap="round" stroke-linejoin="round"/>
</svg>